<svg xmlns="http://www.w3.org/2000/svg" xmlns:xlink="http://www.w3.org/1999/xlink" viewBox="0 0 54.51 54.51"><defs><style>.cls-1{fill:url(#Degradado_sin_nombre_8);}.cls-2{fill:#fff;}</style><linearGradient id="Degradado_sin_nombre_8" x1="26.23" y1="3.3" x2="28.3" y2="51.76" gradientUnits="userSpaceOnUse"><stop offset="0.33" stop-color="#bb4668"/><stop offset="0.84" stop-color="#b43155"/></linearGradient></defs><title>llama</title><g id="Capa_2" data-name="Capa 2"><g id="Capa_1-2" data-name="Capa 1"><circle class="cls-1" cx="27.25" cy="27.25" r="27.25"/><path class="cls-2" d="M40.42,28.13a2.73,2.73,0,0,0-2.94-2.43,3.28,3.28,0,0,0-2,.63,4.58,4.58,0,0,0-2.47-.73H26.94A2.59,2.59,0,0,0,27,25a2.66,2.66,0,0,0-.46-1.51A2.71,2.71,0,0,0,26.17,20a4.58,4.58,0,0,0,0-5.4,7.61,7.61,0,0,0,.18-1.66c0-1.92-.68-4-2.16-4s-2,1.69-2.15,3.43l-.37,0-.36,0C21.19,10.64,20.51,9,19.16,9S17,11,17,12.93a7.61,7.61,0,0,0,.18,1.66,4.59,4.59,0,0,0,.28,5.75,2.67,2.67,0,0,0-.53,1.6,2.7,2.7,0,0,0,.47,1.52A2.67,2.67,0,0,0,16.93,25a2.8,2.8,0,0,0,.24,1.11,2.71,2.71,0,0,0-.5,3.84,2.69,2.69,0,0,0-.58,1.68,2.73,2.73,0,0,0,1.34,2.33,6.83,6.83,0,0,0,1.47,4.49V41.8a1.75,1.75,0,0,0,1.76,1.75h.39A1.75,1.75,0,0,0,22.8,41.8V38.42l.25-.3.25.3V41.8a1.75,1.75,0,0,0,1.75,1.75h.39a1.75,1.75,0,0,0,1.75-1.75V38.42a5.29,5.29,0,0,0,1.1-2h.07a5.3,5.3,0,0,0,1.1,2V41.8a1.75,1.75,0,0,0,1.75,1.75h.39a1.75,1.75,0,0,0,1.75-1.75V38.42a2.69,2.69,0,0,0,.3-.37,3.72,3.72,0,0,0,.3.37V41.8a1.75,1.75,0,0,0,1.75,1.75h.39a1.75,1.75,0,0,0,1.76-1.75V38.42a6.89,6.89,0,0,0,1.47-4.53,7.79,7.79,0,0,0-.77-3.5,2.49,2.49,0,0,0,1.87-2.26ZM24.19,10.65a4.06,4.06,0,0,1,.53,2.27c0,.11,0,.21,0,.31a5.1,5.1,0,0,0-1.05-.51,3.83,3.83,0,0,1,.53-2.07Zm-5,0a3.74,3.74,0,0,1,.53,2.07,5.1,5.1,0,0,0-1.05.51c0-.1,0-.2,0-.31a4.06,4.06,0,0,1,.53-2.27Zm2.29,26.81-.28.24v4.1a.12.12,0,0,1-.12.12h-.39a.12.12,0,0,1-.13-.12V37.7l-.28-.24a2.71,2.71,0,0,1-.62-.87,3.47,3.47,0,0,0,1.78.48h.38a1.9,1.9,0,0,1-.34.39Zm10.56,0-.29.24v4.1a.12.12,0,0,1-.12.12h-.39a.12.12,0,0,1-.12-.12V37.7l-.29-.24a3.23,3.23,0,0,1-.7-1h2.6a3.07,3.07,0,0,1-.69,1Zm4.49,0a.8.8,0,0,0-.28.61V41.8a.12.12,0,0,1-.13.12H35.7a.12.12,0,0,1-.12-.12V38.07a.81.81,0,0,0-.29-.61,3.85,3.85,0,0,1-1-2,.82.82,0,0,0-.79-.64H27.67a.82.82,0,0,0-.8.64,3.85,3.85,0,0,1-1,2,.81.81,0,0,0-.29.61V41.8a.12.12,0,0,1-.12.12h-.39a.12.12,0,0,1-.12-.12V38.07a.81.81,0,0,0-.29-.61A3.38,3.38,0,0,1,23.78,36a.84.84,0,0,0-.78-.56H21.41a1.95,1.95,0,0,1-1.95-2,.82.82,0,0,0-.75-.81,1.08,1.08,0,0,1-.41-2,.82.82,0,0,0,.44-.72.83.83,0,0,0-.44-.73,1.06,1.06,0,0,1-.58-1,1.07,1.07,0,0,1,.84-1,.84.84,0,0,0,.62-.6.82.82,0,0,0-.25-.81A1.08,1.08,0,0,1,19,24.11a.82.82,0,0,0,.32-.65.81.81,0,0,0-.32-.65,1.08,1.08,0,0,1-.43-.87,1.06,1.06,0,0,1,.5-.91.81.81,0,0,0,.08-1.32,3.08,3.08,0,0,1-1.22-2.42A3.55,3.55,0,0,1,21.67,14a3.55,3.55,0,0,1,3.75,3.3,3.08,3.08,0,0,1-1,2.27.8.8,0,0,0-.24.76.81.81,0,0,0,.52.61,1.08,1.08,0,0,1,.72,1,1.1,1.1,0,0,1-.43.87.79.79,0,0,0-.33.65.81.81,0,0,0,.33.65,1.08,1.08,0,0,1,.43.86,1.1,1.1,0,0,1-.38.83.81.81,0,0,0,.53,1.43h7.52A3,3,0,0,1,36,29.66a.81.81,0,0,0,.37.55c.65.41,1.35,1.74,1.35,3.68a5,5,0,0,1-1.19,3.57Zm1-8.53h0a4.41,4.41,0,0,0-.71-1.46,1.81,1.81,0,0,1,.74-.14c.76,0,1.3.42,1.3.8s-.54.8-1.3.8Z"/><path class="cls-2" d="M20.63,16.17a.71.71,0,1,1-.71-.71A.71.71,0,0,1,20.63,16.17Z"/><path class="cls-2" d="M24.13,16.17a.71.71,0,1,1-.71-.71A.71.71,0,0,1,24.13,16.17Z"/><path class="cls-2" d="M20.75,18a.58.58,0,0,0,.38.54.58.58,0,0,1-.56.45.58.58,0,1,0,0,1.16,1.77,1.77,0,0,0,1.16-.44,1.75,1.75,0,0,0,1.16.44.58.58,0,1,0,0-1.16.58.58,0,0,1-.56-.44.59.59,0,0,0,.38-.55.58.58,0,0,0-.58-.58h-.79a.58.58,0,0,0-.59.58Z"/></g></g></svg>