<svg xmlns="http://www.w3.org/2000/svg" xmlns:xlink="http://www.w3.org/1999/xlink" viewBox="0 0 54.51 54.51"><defs><style>.cls-1{fill:url(#Degradado_sin_nombre_8);}.cls-2{fill:#fff;}.cls-3{fill:url(#Degradado_sin_nombre_8-2);}.cls-4{fill:url(#Degradado_sin_nombre_8-3);}</style><linearGradient id="Degradado_sin_nombre_8" x1="26.23" y1="3.3" x2="28.3" y2="51.76" gradientUnits="userSpaceOnUse"><stop offset="0.33" stop-color="#bb4668"/><stop offset="0.84" stop-color="#b43155"/></linearGradient><linearGradient id="Degradado_sin_nombre_8-2" x1="21.71" y1="-0.2" x2="20.39" y2="51.88" xlink:href="#Degradado_sin_nombre_8"/><linearGradient id="Degradado_sin_nombre_8-3" x1="21.56" y1="-0.2" x2="20.24" y2="51.88" xlink:href="#Degradado_sin_nombre_8"/></defs><title>cubo</title><g id="Capa_2" data-name="Capa 2"><g id="Capa_1-2" data-name="Capa 1"><circle class="cls-1" cx="27.25" cy="27.25" r="27.25"/><path class="cls-2" d="M26.58,12.36l-11.95,6.9h0A1.34,1.34,0,0,0,14,20.43V34.22a1.33,1.33,0,0,0,.67,1.17l11.95,6.9a1.36,1.36,0,0,0,1.35,0l12-6.89a1.36,1.36,0,0,0,.67-1.17V20.43a1.36,1.36,0,0,0-.67-1.17l-12-6.9h0A1.36,1.36,0,0,0,26.58,12.36ZM37.85,33.45,28.6,38.79V28.11l9.25-5.34Zm-1.35-13-9.25,5.34L18,20.43l9.24-5.34Z"/><path class="cls-3" d="M21.67,35.73a.87.87,0,1,1-.87-.87.86.86,0,0,1,.87.87"/><path class="cls-4" d="M20.8,26.19a.86.86,0,0,0-.86.87v5.2a.87.87,0,1,0,1.73,0v-5.2a.85.85,0,0,0-.87-.87Z"/></g></g></svg>