<svg xmlns="http://www.w3.org/2000/svg" xmlns:xlink="http://www.w3.org/1999/xlink" viewBox="0 0 54.51 54.51"><defs><style>.cls-1{fill:url(#Degradado_sin_nombre_8);}.cls-2{fill:#fff;}</style><linearGradient id="Degradado_sin_nombre_8" x1="26.23" y1="3.3" x2="28.3" y2="51.76" gradientUnits="userSpaceOnUse"><stop offset="0.33" stop-color="#bb4668"/><stop offset="0.84" stop-color="#b43155"/></linearGradient></defs><title>mari</title><g id="Capa_2" data-name="Capa 2"><g id="Capa_3" data-name="Capa 3"><circle class="cls-1" cx="27.25" cy="27.25" r="27.25"/><path class="cls-2" d="M47.15,20a.81.81,0,0,0-.16-.39,10.77,10.77,0,0,1-.61,2.48l0,.05a2.24,2.24,0,0,0,.77-1.8C47.13,20.23,47.14,20.11,47.15,20Z"/><path class="cls-2" d="M45,23.53a2.56,2.56,0,0,0-1.1,1.58,6.28,6.28,0,0,1-.45,1A12.66,12.66,0,0,0,46,24.63a4.36,4.36,0,0,0,.81-.92A2.29,2.29,0,0,0,45,23.53Z"/><path class="cls-2" d="M36.48,17.29l.63.07a4.21,4.21,0,0,0,1.25-1,8.1,8.1,0,0,1,.94-.83A27.4,27.4,0,0,0,34.61,15a7.92,7.92,0,0,1,.7.94A4.86,4.86,0,0,0,36.48,17.29Z"/><path class="cls-2" d="M35.22,17.19c-.2-.24-.38-.51-.57-.78-.38-.55-.8-1.17-1.14-1.21s-.74.62-1.08,1.19c-.16.26-.31.52-.49.77C33.11,17.12,34.2,17.14,35.22,17.19Z"/><path class="cls-2" d="M38.31,17.52a22.33,22.33,0,0,1,2.85.66,7,7,0,0,1-.16-.74c-.13-.63-.26-1.28-.59-1.41s-.95.39-1.48.92C38.73,17.14,38.53,17.34,38.31,17.52Z"/><path class="cls-2" d="M42.12,18.5a12.15,12.15,0,0,1,1.19.51,7.55,7.55,0,0,0,1.24-.51,9.4,9.4,0,0,1,.93-.39,13.72,13.72,0,0,0-4-2,6.34,6.34,0,0,1,.3,1.16A5.75,5.75,0,0,0,42.12,18.5Z"/><path class="cls-2" d="M11.86,31.67a14.47,14.47,0,0,1-2.1-.14l.09.27h0a2.66,2.66,0,0,1,1.8,1.1,2.89,2.89,0,0,0,.6.58.79.79,0,0,0,.49.15.73.73,0,0,0,.43-.13,3.26,3.26,0,0,0,.82-.93A5.12,5.12,0,0,1,15,31.48,30.69,30.69,0,0,1,11.86,31.67Z"/><path class="cls-2" d="M30.84,17.17a3.88,3.88,0,0,0,.9-1.19,7.58,7.58,0,0,1,.63-1c-.88,0-1.8.09-2.78.19l.73,1.13Z"/><path class="cls-2" d="M9.84,32.6h0c-.4,0-.52,0-.65.19a6.26,6.26,0,0,0,1.86.59A1.76,1.76,0,0,0,9.84,32.6Z"/><path class="cls-2" d="M16.07,31.84c-.6.09-1,.63-1.38,1.19l-.33.46c1.25,0,2.6-.12,4-.27a5.39,5.39,0,0,1-.74-.6C17.1,32.16,16.66,31.76,16.07,31.84Z"/><path class="cls-2" d="M47.51,20.36h0a2.62,2.62,0,0,1-1.22,2.34,6.46,6.46,0,0,1,.78.25l.08,0-.14.38A3.74,3.74,0,0,0,47.51,20.36Z"/><path class="cls-2" d="M33.81,29.63A5.71,5.71,0,0,1,32.28,29a2.73,2.73,0,0,0-2.38-.46,3.15,3.15,0,0,0-1.44,1.7,5.43,5.43,0,0,1-.73,1.18c.77-.21,1.52-.44,2.25-.68C30,30.75,31.59,30.31,33.81,29.63Z"/><path class="cls-2" d="M10.07,26.33a2.53,2.53,0,0,0,.33-2,8.42,8.42,0,0,1-.05-1,14.62,14.62,0,0,0-2.88,3.53,6,6,0,0,1,.73,0A2.58,2.58,0,0,0,10.07,26.33Z"/><path class="cls-2" d="M36.29,27.12c.09-.2.19-.41.3-.62-1.42.42-3,.88-4.84,1.37a9.4,9.4,0,0,1,.9.43c.83.43,1.54.8,2.34.45A2.88,2.88,0,0,0,36.29,27.12Z"/><path class="cls-2" d="M26.49,31.29c.59-.14.86-.62,1.25-1.4a7.71,7.71,0,0,1,.66-1.13c-1.61.42-3.12.8-4.55,1.12a5.74,5.74,0,0,1,1,.69C25.4,31,25.89,31.44,26.49,31.29Z"/><path class="cls-2" d="M18.15,32c.57.51,1,.82,1.44.72s.82-.65,1.15-1.28a6.18,6.18,0,0,1,.64-1c-1.57.32-3,.58-4.34.78A4.56,4.56,0,0,1,18.15,32Z"/><path class="cls-2" d="M9,30.21a6.72,6.72,0,0,1,.7-2.75,5.54,5.54,0,0,1-1.44.14,2.45,2.45,0,0,0-.87.1c-.1.56.41,1.14,1,1.8C8.55,29.72,8.76,30,9,30.21Z"/><path class="cls-2" d="M40.57,25.79c.68.41,1.12.66,1.63.44s.74-.77,1-1.41c.08-.21.16-.42.25-.63-.92.38-2.06.8-3.46,1.26A5.66,5.66,0,0,1,40.57,25.79Z"/><path class="cls-2" d="M44.25,19.53A5.33,5.33,0,0,1,45.89,21c.27-.91.47-1.86.1-2.1l-.06,0h0a4.39,4.39,0,0,0-1,.4Z"/><path class="cls-2" d="M10.1,27.42a5.87,5.87,0,0,0-.74,3.35,4,4,0,0,1,.2.35q3.72.64,12.41-1.21a1.88,1.88,0,0,1,.5-.21,1.72,1.72,0,0,1,.67,0c1.71-.39,3.56-.84,5.53-1.36l.22-.06a2.85,2.85,0,0,1,.7-.43,2.55,2.55,0,0,1,1.47-.15c2.25-.6,4.18-1.15,5.83-1.64a2.23,2.23,0,0,1,1.18-.84,2.18,2.18,0,0,1,1.39,0c1.83-.59,3.22-1.1,4.27-1.56a2.39,2.39,0,0,1,1-.85,1.88,1.88,0,0,1,.67-.19c.07-.25.16-.5.24-.77s.09-.26.13-.39a4.61,4.61,0,0,0-1.93-1.76,2.07,2.07,0,0,1-1.6,0,1.88,1.88,0,0,1-.91-1.1,23.53,23.53,0,0,0-3.42-.78,1.73,1.73,0,0,1-1.23.34,1.93,1.93,0,0,1-1.06-.58,36.72,36.72,0,0,0-4-.06,1.69,1.69,0,0,1-.36.3c1,1.66,2.11,3.48,3.16,5.33,0,0-1.54,3.14-6.92,4.24s-7.16.11-8.11-.67c.14-.94.31-2.09.5-3.47s.33-2.47.45-3.35v0a34.61,34.61,0,0,0-4.49,2.14,1.58,1.58,0,0,1-.48.52,1.71,1.71,0,0,1-.89.33,15.31,15.31,0,0,0-3.28,2.89,2.18,2.18,0,0,1-.55,1.09,1.87,1.87,0,0,1-.45.36A1.62,1.62,0,0,0,10.1,27.42Z"/><path class="cls-2" d="M14.9,21.92c.39-.27.5-.83.64-1.47a6.4,6.4,0,0,1,.34-1.2,31.59,31.59,0,0,0-3.66,2.46,7.18,7.18,0,0,1,.92.2C13.81,22.08,14.44,22.25,14.9,21.92Z"/><path class="cls-2" d="M19.36,19.32c-.62-.45-1.33-1-1.9-.69-.79.37-1,1.15-1.13,2a8.33,8.33,0,0,1-.22.86,36.63,36.63,0,0,1,3.78-1.79C19.72,19.58,19.55,19.45,19.36,19.32Z"/><path class="cls-2" d="M11.25,25.15a15.78,15.78,0,0,1,2.6-2.27,6.83,6.83,0,0,1-.92-.2c-.73-.19-1.2-.29-1.51,0s-.3.78-.22,1.58C11.23,24.52,11.25,24.83,11.25,25.15Z"/><path class="cls-2" d="M26.67,23a19.07,19.07,0,0,0,5.2-2.55c-.76-1.28-1.52-2.5-2.23-3.63-1.21-1.92-1.64-2.49-2.35-2.85A4.22,4.22,0,0,0,22,15.78c-.42.68-.49,1.23-.89,4.25-.1.72-.21,1.59-.36,2.62A13.5,13.5,0,0,0,26.67,23Z"/><path class="cls-2" d="M20.45,19.08c.13-.93.22-1.58.31-2.07-.74.25-1.49.54-2.24.88a5.89,5.89,0,0,1,1.32.78A7.23,7.23,0,0,0,20.45,19.08Z"/><path class="cls-2" d="M8.4,30.8c-.2-.26-.43-.52-.65-.76a7.46,7.46,0,0,1-.89-1.13,1.73,1.73,0,0,0,.46,1.19A2.7,2.7,0,0,0,8.4,30.8Z"/><path class="cls-2" d="M7,30.36l-.09-.12a4.43,4.43,0,0,0,1.55,2.13A1.14,1.14,0,0,1,9,31.89a3,3,0,0,0-.27-.57A3.67,3.67,0,0,1,7,30.36Z"/><path class="cls-2" d="M24.32,31.19c-.57-.46-1.06-.86-1.65-.71s-.89.74-1.22,1.36l-.53,1.05c1.54-.24,3.09-.54,4.62-.9A4.68,4.68,0,0,1,24.32,31.19Z"/><path class="cls-2" d="M38.59,25.89l-.59.19a2.8,2.8,0,0,0-1,1.38,5.31,5.31,0,0,1-.88,1.44l.93-.31c1.42-.48,2.9-1,4.25-1.55a4.53,4.53,0,0,1-1.17-.57A2.72,2.72,0,0,0,38.59,25.89Z"/><path class="cls-2" d="M24.47,33h0a.86.86,0,1,0,1.05.62A.86.86,0,0,0,24.46,33Z"/><path class="cls-2" d="M33.76,32.42a.86.86,0,0,0,.63-1h0a.88.88,0,0,0-1-.63.86.86,0,1,0,.42,1.67Z"/><path class="cls-2" d="M40.35,33a.39.39,0,0,0-.21-.06.43.43,0,0,0-.3.13,5.09,5.09,0,0,1-1.33,1,4.53,4.53,0,0,1-.74.29h-.05a3.54,3.54,0,0,1-.7.12h-.18a3.25,3.25,0,0,1-.69-.08,3.46,3.46,0,0,1-.66-.23,6.66,6.66,0,0,0-2.77-.66,4.72,4.72,0,0,0-3,1,3.94,3.94,0,0,0-.82-.08,5.55,5.55,0,0,0-4.44,2.46,3.63,3.63,0,0,1-.47.49l-.13.11a3.67,3.67,0,0,1-.53.34l-.1,0a4.12,4.12,0,0,1-.53.18l-.21,0a3.59,3.59,0,0,1-.75.08h-.08A5.39,5.39,0,0,1,20.12,38a.32.32,0,0,0-.14,0,.41.41,0,0,0-.29.71,8.19,8.19,0,0,0,5.25,2.29,3.77,3.77,0,0,0,.47,0,5.56,5.56,0,0,0,.91-.14l.72-.24.17-.07a5.84,5.84,0,0,0,.61-.31l.07,0,0,0c.13-.08.26-.16.38-.25l.16-.1c.13-.09.26-.2.38-.3l.13-.09v0q.36-.31.72-.69a1,1,0,0,0,.13-.15,8.07,8.07,0,0,0,.69-.82,9.43,9.43,0,0,0,1,.42l.17.06q.4.14.81.24h0c.24.06.48.1.72.14l.24,0,.25,0,.49,0a5.66,5.66,0,0,0,1.43-.18,5.22,5.22,0,0,0,.87-.29,8,8,0,0,0,4-4.68A.4.4,0,0,0,40.35,33Z"/></g></g></svg>