<svg xmlns="http://www.w3.org/2000/svg" viewBox="0 0 80.91 54.26"><defs><style>.cls-1{fill:#d81159;}</style></defs><title>mariachi</title><g id="Capa_2" data-name="Capa 2"><g id="Capa_1-2" data-name="Capa 1"><path class="cls-1" d="M34.92,38.44h0A1.71,1.71,0,1,0,37,39.68,1.72,1.72,0,0,0,34.92,38.44Z"/><path class="cls-1" d="M53.35,37.38a1.69,1.69,0,0,0,1.25-2.06h0a1.71,1.71,0,1,0-1.25,2.07Z"/><path class="cls-1" d="M79.87,13.42c0-.22,0-.45,0-.68A1.72,1.72,0,0,0,79.6,12a21.51,21.51,0,0,1-1.21,4.93l0,.1A4.45,4.45,0,0,0,79.87,13.42Z"/><path class="cls-1" d="M75.73,19.75c-1.22.58-1.69,1.82-2.19,3.12a11.93,11.93,0,0,1-.89,2,24.71,24.71,0,0,0,4.94-2.92A8.59,8.59,0,0,0,79.2,20.1C77.92,19.64,76.81,19.24,75.73,19.75Z"/><path class="cls-1" d="M58.75,7.37,60,7.5a8.3,8.3,0,0,0,2.49-1.95,14.29,14.29,0,0,1,1.86-1.63,54.22,54.22,0,0,0-9.3-1,17.83,17.83,0,0,1,1.39,1.85A9.46,9.46,0,0,0,58.75,7.37Z"/><path class="cls-1" d="M56.25,7.18c-.39-.49-.76-1-1.12-1.55-.75-1.09-1.6-2.33-2.27-2.4S51.4,4.45,50.71,5.59c-.3.51-.61,1-1,1.52C52.07,7,54.23,7.06,56.25,7.18Z"/><path class="cls-1" d="M62.39,7.83A44.56,44.56,0,0,1,68,9.13c-.13-.49-.23-1-.32-1.46-.25-1.25-.51-2.54-1.16-2.8s-1.88.78-2.94,1.82C63.22,7.07,62.81,7.47,62.39,7.83Z"/><path class="cls-1" d="M69.94,9.77c.85.32,1.64.66,2.35,1a15.49,15.49,0,0,0,2.46-1A15.14,15.14,0,0,1,76.61,9a27.66,27.66,0,0,0-7.94-3.93,13.11,13.11,0,0,1,.6,2.3A10.69,10.69,0,0,0,69.94,9.77Z"/><path class="cls-1" d="M16.09,35.51a57.36,57.36,0,0,1-6.17.37,28.81,28.81,0,0,1-4.17-.27c.07.17.13.35.19.54H6a5.21,5.21,0,0,1,3.57,2.18,6.66,6.66,0,0,0,1.19,1.16,1.69,1.69,0,0,0,1.83,0,6.59,6.59,0,0,0,1.63-1.85A10.05,10.05,0,0,1,16.09,35.51Z"/><path class="cls-1" d="M47.56,7.13a7.75,7.75,0,0,0,1.79-2.36,14.56,14.56,0,0,1,1.26-1.9c-1.75.06-3.59.18-5.53.37.43.64.9,1.38,1.45,2.25C46.87,6,47.21,6.57,47.56,7.13Z"/><path class="cls-1" d="M5.92,37.74h0c-.81-.05-1,0-1.29.37a12.24,12.24,0,0,0,3.69,1.16A3.55,3.55,0,0,0,5.92,37.74Z"/><path class="cls-1" d="M18.26,36.23c-1.19.17-1.93,1.24-2.72,2.37-.22.3-.43.61-.67.91,2.5-.06,5.16-.25,7.92-.54a13.17,13.17,0,0,1-1.47-1.19C20.31,36.86,19.44,36.06,18.26,36.23Z"/><path class="cls-1" d="M80.62,13.46h0a5.16,5.16,0,0,1-2.41,4.64c.54.14,1.06.32,1.55.5l.15.06-.28.75A7.38,7.38,0,0,0,80.62,13.46Z"/><path class="cls-1" d="M53.45,31.85a11.62,11.62,0,0,1-3-1.23c-1.65-.86-3.08-1.6-4.72-.91-1.48.62-2.15,1.95-2.87,3.36a10.58,10.58,0,0,1-1.44,2.35c1.52-.43,3-.88,4.47-1.36C45.87,34.06,49.05,33.2,53.45,31.85Z"/><path class="cls-1" d="M6.37,25.3c.93-1,.8-2.46.65-4a14.58,14.58,0,0,1-.09-2,29.55,29.55,0,0,0-5.71,7,11.64,11.64,0,0,1,1.45-.07C4,26.22,5.51,26.2,6.37,25.3Z"/><path class="cls-1" d="M58.37,26.87c.18-.41.37-.82.59-1.23-2.81.83-6,1.73-9.59,2.71a19.91,19.91,0,0,1,1.8.86c1.63.85,3,1.58,4.62.88C57.16,29.49,57.75,28.22,58.37,26.87Z"/><path class="cls-1" d="M38.94,35.14c1.16-.27,1.7-1.24,2.48-2.79a14.25,14.25,0,0,1,1.31-2.23c-3.19.83-6.2,1.58-9,2.23a11.37,11.37,0,0,1,1.93,1.36C36.78,34.63,37.75,35.43,38.94,35.14Z"/><path class="cls-1" d="M27.54,35.49a11.4,11.4,0,0,1,1.27-2.07q-4.68,1-8.61,1.56a9,9,0,0,1,2.19,1.61c1.13,1,1.88,1.63,2.86,1.44S26.88,36.74,27.54,35.49Z"/><path class="cls-1" d="M4.16,33a13,13,0,0,1,1.39-5.45,11.41,11.41,0,0,1-2.86.28A4.85,4.85,0,0,0,1,28c-.2,1.12.82,2.26,2,3.58C3.35,32,3.77,32.49,4.16,33Z"/><path class="cls-1" d="M66.86,24.22c1.35.82,2.23,1.31,3.25.88s1.46-1.53,2-2.8c.15-.41.31-.83.5-1.24-1.83.75-4.08,1.57-6.86,2.49C66.11,23.76,66.49,24,66.86,24.22Z"/><path class="cls-1" d="M74.16,11.8a11.06,11.06,0,0,1,3.26,2.87c.53-1.81.92-3.7.2-4.16l-.12-.09h0a8.38,8.38,0,0,0-2,.8C75,11.41,74.59,11.62,74.16,11.8Z"/><path class="cls-1" d="M6.43,27.45A11.84,11.84,0,0,0,5,34.1a7.84,7.84,0,0,1,.41.69c4.9.86,13.12.06,24.6-2.39A3.9,3.9,0,0,1,31,32a3.76,3.76,0,0,1,1.32-.09c3.4-.76,7.05-1.66,11-2.69l.43-.11a5.61,5.61,0,0,1,1.39-.85,4.94,4.94,0,0,1,2.92-.3c4.45-1.2,8.28-2.28,11.56-3.26a4.41,4.41,0,0,1,5.1-1.59c3.63-1.17,6.38-2.19,8.47-3.09a4.74,4.74,0,0,1,1.91-1.69,4.29,4.29,0,0,1,1.33-.37c.15-.49.32-1,.49-1.54.08-.24.16-.5.25-.76a9.34,9.34,0,0,0-3.83-3.5,4.07,4.07,0,0,1-3.17.07A3.77,3.77,0,0,1,68.31,10a42.71,42.71,0,0,0-6.78-1.54,3.49,3.49,0,0,1-2.44.67A3.76,3.76,0,0,1,57,8a72.45,72.45,0,0,0-7.88-.11,4,4,0,0,1-.71.6c2.05,3.3,4.18,6.9,6.27,10.58,0,0-3.05,6.22-13.72,8.4s-14.2.22-16.1-1.33c.28-1.86.62-4.14,1-6.87s.67-4.91.9-6.66v0a67.44,67.44,0,0,0-8.9,4.23,3.51,3.51,0,0,1-.95,1.05,3.62,3.62,0,0,1-1.77.65,30.36,30.36,0,0,0-6.51,5.72A4.24,4.24,0,0,1,7.53,26.4a4,4,0,0,1-.91.7Z"/><path class="cls-1" d="M16,16.56c.76-.55,1-1.66,1.26-2.93a13.13,13.13,0,0,1,.67-2.38,63.72,63.72,0,0,0-7.25,4.88,15.3,15.3,0,0,1,1.81.39C13.79,16.88,15.05,17.21,16,16.56Z"/><path class="cls-1" d="M24.81,11.39C23.57,10.5,22.16,9.48,21,10c-1.57.74-1.9,2.29-2.25,3.94a16,16,0,0,1-.42,1.69,67.29,67.29,0,0,1,7.49-3.53C25.52,11.91,25.17,11.66,24.81,11.39Z"/><path class="cls-1" d="M8.72,23a31.66,31.66,0,0,1,5.14-4.49,13.22,13.22,0,0,1-1.81-.4c-1.46-.38-2.39-.58-3-.07s-.59,1.53-.44,3.13C8.66,21.71,8.72,22.33,8.72,23Z"/><path class="cls-1" d="M39.3,18.59a37.19,37.19,0,0,0,10.31-5.06c-1.51-2.53-3-5-4.43-7.19-2.4-3.82-3.25-4.95-4.65-5.66C37.1-1,32.42.61,30.1,4.37c-.84,1.36-1,2.44-1.78,8.44-.19,1.42-.42,3.14-.7,5.2C30.05,18.59,35.5,19.65,39.3,18.59Z"/><path class="cls-1" d="M27,10.92c.25-1.84.43-3.13.62-4.11a47.6,47.6,0,0,0-4.45,1.75,11.52,11.52,0,0,1,2.61,1.54A13.72,13.72,0,0,0,27,10.92Z"/><path class="cls-1" d="M3.06,34.16c-.41-.52-.85-1-1.29-1.51A15.84,15.84,0,0,1,0,30.42a3.52,3.52,0,0,0,.91,2.36A5.63,5.63,0,0,0,3.06,34.16Z"/><path class="cls-1" d="M.35,33.28c-.07-.07-.13-.15-.19-.22a8.81,8.81,0,0,0,3.07,4.21,2.34,2.34,0,0,1,1.09-1,7.86,7.86,0,0,0-.55-1.13A7.1,7.1,0,0,1,.35,33.28Z"/><path class="cls-1" d="M27.89,38.3c3.05-.47,6.14-1.06,9.17-1.77a9.3,9.3,0,0,1-2.42-1.59c-1.13-.92-2.11-1.71-3.28-1.41S29.6,35,29,36.23a6.64,6.64,0,0,1-2.48,3.05"/><path class="cls-1" d="M59.93,29.78c2.82-1,5.74-2,8.42-3.07A9.42,9.42,0,0,1,66,25.58a5.34,5.34,0,0,0-3.09-1.15l-1.18.37a5.57,5.57,0,0,0-1.94,2.73,10.31,10.31,0,0,1-1.74,2.86l.33-.11"/><path class="cls-1" d="M66.43,38.5a.77.77,0,0,0-.41-.11.83.83,0,0,0-.61.26,10.06,10.06,0,0,1-2.64,1.94l-.4.19-.17.07-.22.09-.23.08-.16.06-.27.08-.11,0-.3.08-.08,0-.32.06h0l-.34,0h0l-.36,0h-.26c-.23,0-.46,0-.69,0l-.11,0-.58-.1-.27-.08a2.72,2.72,0,0,1-.38-.11c-.21-.07-.43-.16-.64-.25a13,13,0,0,0-5.5-1.31,9.42,9.42,0,0,0-5.93,2,8.76,8.76,0,0,0-1.63-.15c-2.17,0-5.66.77-8.81,4.88-.14.18-.28.35-.44.52l-.12.13c-.15.15-.31.29-.47.43l-.11.09c-.14.1-.28.21-.42.3l-.16.1a5.29,5.29,0,0,1-.52.29l-.15.07a5.89,5.89,0,0,1-.58.24l-.18,0-.5.14-.25.05-.49.08-.24,0a6.33,6.33,0,0,1-.76,0h-.17a10.23,10.23,0,0,1-3.06-.47.92.92,0,0,0-.28,0,.85.85,0,0,0-.7.38.83.83,0,0,0,.12,1c.19.19,4.59,4.54,10.4,4.54.32,0,.63,0,.95,0a11.72,11.72,0,0,0,1.79-.29c.25-.06.49-.13.73-.21l.16,0,.67-.25,0,0a12.59,12.59,0,0,0,1.52-.75h0l.54-.33h0l.53-.36h0c.17-.12.35-.25.52-.39h0l.51-.42h0c.26-.22.53-.46.79-.71v0c.26-.24.51-.5.76-.76l0,0c.23-.26.47-.52.7-.8l.13-.15c.22-.28.45-.56.67-.85l1,.45.12,0c.3.13.6.24.9.35h0a18.57,18.57,0,0,0,3,.79l.31,0,.41.05.63.07c.33,0,.65,0,1,0a11.71,11.71,0,0,0,2.85-.35,11.55,11.55,0,0,0,1.72-.57c5.79-2.48,7.85-9,7.93-9.3A.79.79,0,0,0,66.43,38.5Z"/></g></g></svg>