<svg xmlns="http://www.w3.org/2000/svg" xmlns:xlink="http://www.w3.org/1999/xlink" viewBox="0 0 54.51 54.51"><defs><style>.cls-1{fill:url(#Degradado_sin_nombre_8);}.cls-2{fill:#fff;}</style><linearGradient id="Degradado_sin_nombre_8" x1="26.23" y1="3.3" x2="28.3" y2="51.76" gradientUnits="userSpaceOnUse"><stop offset="0.33" stop-color="#bb4668"/><stop offset="0.84" stop-color="#b43155"/></linearGradient></defs><title>saturno</title><g id="Capa_2" data-name="Capa 2"><g id="Capa_1-2" data-name="Capa 1"><circle class="cls-1" cx="27.25" cy="27.25" r="27.25"/><path class="cls-2" d="M24.69,38.89a11.92,11.92,0,0,0,13-5.86c3.43,0,6.33-.52,7.93-1.54h0a2.61,2.61,0,0,0,1.28-1.61c.42-1.86-1.81-4.11-6-6h0a.92.92,0,0,0-.76,1.67c3.73,1.72,5.06,3.42,4.94,3.95-.16.74-2.6,1.55-6.59,1.71a11.91,11.91,0,0,0-19.9-12.12.91.91,0,0,0-.34.36,11.54,11.54,0,0,0-2.88,6.8c-4.1-2-6.27-4-6.09-4.8.12-.53,2.05-1.5,6.17-1.46a.92.92,0,0,0,0-1.83c-2.78,0-5,.22-6.37,1.05A3.35,3.35,0,0,0,7.56,21c-.5,2.25,3,5,7.86,7.21a12,12,0,0,0,9.27,10.66ZM17.45,25.12l12.09,2.72a.92.92,0,0,0,.4-1.79L18,23.37a10,10,0,0,1,1.5-2.49l6.57,1.48h0a.92.92,0,0,0,.4-1.79l-5.42-1.22a9,9,0,0,1,.86-.62A10.07,10.07,0,0,1,36.58,31.2a50.6,50.6,0,0,1-10.33-1.28,51.59,51.59,0,0,1-9-2.88,9.51,9.51,0,0,1,.23-1.92Zm-.07,3.95a54.88,54.88,0,0,0,8.46,2.64A55.29,55.29,0,0,0,35.6,33a10.22,10.22,0,0,1-2.21,2.29l-5.26-1.18a.92.92,0,1,0-.41,1.79l3.29.74a10.09,10.09,0,0,1-13.63-7.57Z"/><path class="cls-2" d="M31.44,23.57a.93.93,0,0,0,.69-.12,1,1,0,0,0,.41-.57,1,1,0,0,0-.12-.7.92.92,0,0,0-.58-.4l-1.79-.4a.91.91,0,0,0-1.1.69.93.93,0,0,0,.7,1.1Z"/><path class="cls-2" d="M24.83,35a.92.92,0,0,0-.28-1.67l-1.79-.4a.92.92,0,0,0-.41,1.79l1.79.4a.88.88,0,0,0,.69-.12Z"/><path class="cls-2" d="M34.91,29.05a.89.89,0,0,0,.69-.12.92.92,0,0,0,.41-.57,1,1,0,0,0-.12-.7.92.92,0,0,0-.58-.4l-1.79-.4a.92.92,0,1,0-.4,1.79Z"/></g></g></svg>